{
  "title": "Mythica A Quest for Heroes 2015 BRRip x264-MenaceIISociety",
  "uid": 11773684,
  "size": 1342887978,
  "categoryP": "video",
  "categoryS": "movies",
  "magnet": "?xt=urn:btih:ba1d27395351f0d760f619e7449ff4166061cf51&amp;dn=Mythica+A+Quest+for+Heroes+2015+BRRip+x264-MenaceIISociety&amp;tr=udp%3A%2F%2Ftracker.openbittorrent.com%3A80&amp;tr=udp%3A%2F%2Fopen.demonii.com%3A1337&amp;tr=udp%3A%2F%2Ftracker.coppersurfer.tk%3A6969&amp;tr=udp%3A%2F%2Fexodus.desync.com%3A6969",
  "seeders": 72,
  "leechers": 10,
  "uploader": "xxxlavalxxx",
  "files": 3,
  "time": 1427181042,
  "description": "[img]http://i.imgur.com/aBUjNnD.jpg[/img]\n &lt;a href=&quot;\nhttp://www.imdb.com/title/tt3405714/&quot; rel=&quot;nofollow&quot; target=&quot;_NEW&quot;&gt;\nhttp://www.imdb.com/title/tt3405714/&lt;/a&gt;\n\nThe young magician Marek dreams of exciting adventures. When she meets the help-seeking priestess Teela she offers her assistance and provides a motley troupe. Together they go in search of Teela's sister, who was kidnapped by a wild ogre.\n\nDirector: Anne K. Black\nWriters: Anne K. Black, Jason Faller\nStars: Melanie Stone, Adam Johnson, Jake Stormoen \nGenres: Action | Adventure | Fantasy\nCountry: USA\nLanguage: English\n\nSource: DL.720p.BluRay.x264-Pate [THANKS]\n\nGeneral\nComplete name: Mythica A Quest for Heroes 2015 BRRip x264-MenaceIISociety.mp4\nFormat: MPEG-4\nFormat profile: Base Media\nCodec ID: isom\nFile size: 1.25 GiB\nDuration: 1h 32mn\nOverall bit rate mode: Variable\nOverall bit rate: 1 934 Kbps\nEncoded date: UTC 2015-03-24 04:22:38\nTagged date: UTC 2015-03-24 04:22:38\n\nVideo\nID: 1\nFormat: AVC\nFormat/Info: Advanced Video Codec\nFormat profile: &lt;a class=&quot;__cf_email__&quot; href=&quot;/cdn-cgi/l/email-protection&quot; data-cfemail=&quot;662e0f010e262a524857&quot;&gt;[email&amp;#160;protected]&lt;/a&gt;&lt;script cf-hash='f9e31' type=&quot;text/javascript&quot;&gt;\n/* &lt;![CDATA[ */!function(){try{var t=&quot;currentScript&quot;in document?document.currentScript:function(){for(var t=document.getElementsByTagName(&quot;script&quot;),e=t.length;e--;)if(t[e].getAttribute(&quot;cf-hash&quot;))return t[e]}();if(t&amp;&amp;t.previousSibling){var e,r,n,i,c=t.previousSibling,a=c.getAttribute(&quot;data-cfemail&quot;);if(a){for(e=&quot;&quot;,r=parseInt(a.substr(0,2),16),n=2;a.length-n;n+=2)i=parseInt(a.substr(n,2),16)^r,e+=String.fromCharCode(i);e=document.createTextNode(e),c.parentNode.replaceChild(e,c)}}}catch(u){}}();/* ]]&gt; */&lt;/script&gt;\nFormat settings, CABAC: Yes\nFormat settings, ReFrames: 3 frames\nCodec ID: avc1\nCodec ID/Info: Advanced Video Coding\nDuration: 1h 32mn\nBit rate mode: Variable\nBit rate: 1 585 Kbps\nMaximum bit rate: 40.0 Mbps\nWidth: 720 pixels\nHeight: 400 pixels\nDisplay aspect ratio: 16:9\nFrame rate mode: Constant\nFrame rate: 23.976 fps\nColor space: YUV\nChroma subsampling: 4:2:0\nBit depth: 8 bits\nScan type: Progressive\nBits/(Pixel*Frame): 0.229\nStream size: 1.02 GiB (82%)\nWriting library: x264 core 146 r2538 121396c\n\nAudio\nID: 2\nFormat: AAC\nFormat/Info: Advanced Audio Codec\nFormat profile: LC\nCodec ID: 40\nDuration: 1h 32mn\nBit rate mode: Variable\nBit rate: 353 Kbps\nMaximum bit rate: 401 Kbps\nChannel(s): 6 channels\nChannel positions: Front: L C R, Side: L R, LFE\nSampling rate: 48.0 KHz\nCompression mode: Lossy\nStream size: 229 MiB (18%)\nLanguage: English\nEncoded date: UTC 2015-03-24 00:29:46\nTagged date: UTC 2015-03-24 04:26:17 \n\nscreens\n &lt;a href=&quot;\nhttp://i.imgur.com/VR2vGF0.jpg&quot; rel=&quot;nofollow&quot; target=&quot;_NEW&quot;&gt;\nhttp://i.imgur.com/VR2vGF0.jpg&lt;/a&gt; &lt;a href=&quot;\nhttp://i.imgur.com/F5iWJzv.jpg&quot; rel=&quot;nofollow&quot; target=&quot;_NEW&quot;&gt;\nhttp://i.imgur.com/F5iWJzv.jpg&lt;/a&gt; &lt;a href=&quot;\nhttp://i.imgur.com/Pm2wmxw.jpg&quot; rel=&quot;nofollow&quot; target=&quot;_NEW&quot;&gt;\nhttp://i.imgur.com/Pm2wmxw.jpg&lt;/a&gt; &lt;a href=&quot;\nhttp://i.imgur.com/6cD10Db.jpg&quot; rel=&quot;nofollow&quot; target=&quot;_NEW&quot;&gt;\nhttp://i.imgur.com/6cD10Db.jpg&lt;/a&gt; &lt;a href=&quot;\nhttp://i.imgur.com/Zma2QHc.jpg&quot; rel=&quot;nofollow&quot; target=&quot;_NEW&quot;&gt;\nhttp://i.imgur.com/Zma2QHc.jpg&lt;/a&gt; &lt;a href=&quot;\nhttp://i.imgur.com/uCbabwT.jpg&quot; rel=&quot;nofollow&quot; target=&quot;_NEW&quot;&gt;\nhttp://i.imgur.com/uCbabwT.jpg&lt;/a&gt;",
  "parsed": {
    "xt": "urn:btih:ba1d27395351f0d760f619e7449ff4166061cf51",
    "dn": "Mythica A Quest for Heroes 2015 BRRip x264-MenaceIISociety",
    "tr": [
      "udp://exodus.desync.com:6969",
      "udp://open.demonii.com:1337",
      "udp://tracker.coppersurfer.tk:6969",
      "udp://tracker.openbittorrent.com:80"
    ],
    "infoHash": "ba1d27395351f0d760f619e7449ff4166061cf51",
    "infoHashBuffer": {
      "type": "Buffer",
      "data": [
        186,
        29,
        39,
        57,
        83,
        81,
        240,
        215,
        96,
        246,
        25,
        231,
        68,
        159,
        244,
        22,
        96,
        97,
        207,
        81
      ]
    },
    "name": "Mythica A Quest for Heroes 2015 BRRip x264-MenaceIISociety",
    "announce": [
      "udp://exodus.desync.com:6969",
      "udp://open.demonii.com:1337",
      "udp://tracker.coppersurfer.tk:6969",
      "udp://tracker.openbittorrent.com:80"
    ],
    "urlList": []
  },
  "previous": 82,
  "peers": 22,
  "last_updated": "2016-12-25T12:12:58.816Z"
}